<svg width="650" height="507" viewBox="0 0 650 507" fill="none" xmlns="http://www.w3.org/2000/svg">
<g filter="url(#filter0_d)">
<rect x="40" y="20" width="642" height="427" rx="15" fill="url(#paint0_linear)"/>
</g>
<mask id="mask0" mask-type="alpha" maskUnits="userSpaceOnUse" x="40" y="20" width="642" height="427">
<rect x="40" y="20" width="642" height="427" rx="15" fill="white"/>
</mask>
<g mask="url(#mask0)">
<path d="M40 148C40 146.343 41.3431 145 43 145H679C680.657 145 682 146.343 682 148V444C682 445.657 680.657 447 679 447H43C41.3431 447 40 445.657 40 444V148Z" fill="#2D2E40"/>
<rect x="130.523" y="67.7095" width="135.785" height="137.165" rx="3" fill="white"/>
<ellipse cx="198.416" cy="136.888" rx="39.3061" ry="39.3603" fill="#2D2E40"/>
<rect x="288.939" y="67.7095" width="302.538" height="325.617" rx="3" fill="white"/>
</g>
<defs>
<filter id="filter0_d" x="0" y="0" width="722" height="507" filterUnits="userSpaceOnUse" color-interpolation-filters="sRGB">
<feFlood flood-opacity="0" result="BackgroundImageFix"/>
<feColorMatrix in="SourceAlpha" type="matrix" values="0 0 0 0 0 0 0 0 0 0 0 0 0 0 0 0 0 0 127 0"/>
<feOffset dy="20"/>
<feGaussianBlur stdDeviation="20"/>
<feColorMatrix type="matrix" values="0 0 0 0 0.421822 0 0 0 0 0.554338 0 0 0 0 0.89371 0 0 0 0.243444 0"/>
<feBlend mode="normal" in2="BackgroundImageFix" result="effect1_dropShadow"/>
<feBlend mode="normal" in="SourceGraphic" in2="effect1_dropShadow" result="shape"/>
</filter>
<linearGradient id="paint0_linear" x1="-281" y1="233.5" x2="112.798" y2="825.581" gradientUnits="userSpaceOnUse">
<stop stop-color="#FF8F71"/>
<stop offset="1" stop-color="#FF3E55"/>
</linearGradient>
</defs>
</svg>
